<svg height="51" width="48"><g><rect fill="rgba(51,51,51,1)" height="3" width="3" x="36" y="48"></rect><rect fill="rgba(51,51,51,1)" height="3" width="3" x="33" y="48"></rect><rect fill="rgba(51,51,51,1)" height="3" width="3" x="30" y="48"></rect><rect fill="rgba(51,51,51,1)" height="3" width="3" x="27" y="48"></rect><rect fill="rgba(51,51,51,1)" height="3" width="3" x="18" y="48"></rect><rect fill="rgba(51,51,51,1)" height="3" width="3" x="15" y="48"></rect><rect fill="rgba(51,51,51,1)" height="3" width="3" x="12" y="48"></rect><rect fill="rgba(51,51,51,1)" height="3" width="3" x="9" y="48"></rect><rect fill="rgba(51,51,51,1)" height="3" width="3" x="39" y="45"></rect><rect fill="rgba(203,203,203,1)" height="3" width="3" x="36" y="45"></rect><rect fill="rgba(203,203,203,1)" height="3" width="3" x="33" y="45"></rect><rect fill="rgba(203,203,203,1)" height="3" width="3" x="30" y="45"></rect><rect fill="rgba(203,203,203,1)" height="3" width="3" x="27" y="45"></rect><rect fill="rgba(51,51,51,1)" height="3" width="3" x="24" y="45"></rect><rect fill="rgba(51,51,51,1)" height="3" width="3" x="21" y="45"></rect><rect fill="rgba(203,203,203,1)" height="3" width="3" x="18" y="45"></rect><rect fill="rgba(203,203,203,1)" height="3" width="3" x="15" y="45"></rect><rect fill="rgba(203,203,203,1)" height="3" width="3" x="12" y="45"></rect><rect fill="rgba(203,203,203,1)" height="3" width="3" x="9" y="45"></rect><rect fill="rgba(51,51,51,1)" height="3" width="3" x="6" y="45"></rect><rect fill="rgba(51,51,51,1)" height="3" width="3" x="42" y="42"></rect><rect fill="rgba(203,203,203,1)" height="3" width="3" x="39" y="42"></rect><rect fill="rgba(203,203,203,1)" height="3" width="3" x="36" y="42"></rect><rect fill="rgba(255,255,255,1)" height="3" width="3" x="33" y="42"></rect><rect fill="rgba(255,255,255,1)" height="3" width="3" x="30" y="42"></rect><rect fill="rgba(255,255,255,1)" height="3" width="3" x="27" y="42"></rect><rect fill="rgba(203,203,203,1)" height="3" width="3" x="24" y="42"></rect><rect fill="rgba(203,203,203,1)" height="3" width="3" x="21" y="42"></rect><rect fill="rgba(255,255,255,1)" height="3" width="3" x="18" y="42"></rect><rect fill="rgba(255,255,255,1)" height="3" width="3" x="15" y="42"></rect><rect fill="rgba(255,255,255,1)" height="3" width="3" x="12" y="42"></rect><rect fill="rgba(255,255,255,1)" height="3" width="3" x="9" y="42"></rect><rect fill="rgba(203,203,203,1)" height="3" width="3" x="6" y="42"></rect><rect fill="rgba(51,51,51,1)" height="3" width="3" x="3" y="42"></rect><rect fill="rgba(51,51,51,1)" height="3" width="3" x="42" y="39"></rect><rect fill="rgba(203,203,203,1)" height="3" width="3" x="39" y="39"></rect><rect fill="rgba(255,255,255,1)" height="3" width="3" x="36" y="39"></rect><rect fill="rgba(255,255,255,1)" height="3" width="3" x="33" y="39"></rect><rect fill="rgba(255,255,255,1)" height="3" width="3" x="30" y="39"></rect><rect fill="rgba(255,255,255,1)" height="3" width="3" x="27" y="39"></rect><rect fill="rgba(255,255,255,1)" height="3" width="3" x="24" y="39"></rect><rect fill="rgba(255,255,255,1)" height="3" width="3" x="21" y="39"></rect><rect fill="rgba(255,255,255,1)" height="3" width="3" x="18" y="39"></rect><rect fill="rgba(255,255,255,1)" height="3" width="3" x="15" y="39"></rect><rect fill="rgba(255,255,255,1)" height="3" width="3" x="12" y="39"></rect><rect fill="rgba(255,255,255,1)" height="3" width="3" x="9" y="39"></rect><rect fill="rgba(255,255,255,1)" height="3" width="3" x="6" y="39"></rect><rect fill="rgba(51,51,51,1)" height="3" width="3" x="3" y="39"></rect><rect fill="rgba(51,51,51,1)" height="3" width="3" x="42" y="36"></rect><rect fill="rgba(203,203,203,1)" height="3" width="3" x="39" y="36"></rect><rect fill="rgba(255,255,255,1)" height="3" width="3" x="36" y="36"></rect><rect fill="rgba(255,255,255,1)" height="3" width="3" x="33" y="36"></rect><rect fill="rgba(255,255,255,1)" height="3" width="3" x="30" y="36"></rect><rect fill="rgba(51,51,51,1)" height="3" width="3" x="27" y="36"></rect><rect fill="rgba(51,51,51,1)" height="3" width="3" x="24" y="36"></rect><rect fill="rgba(51,51,51,1)" height="3" width="3" x="21" y="36"></rect><rect fill="rgba(51,51,51,1)" height="3" width="3" x="18" y="36"></rect><rect fill="rgba(255,255,255,1)" height="3" width="3" x="15" y="36"></rect><rect fill="rgba(255,255,255,1)" height="3" width="3" x="12" y="36"></rect><rect fill="rgba(255,255,255,1)" height="3" width="3" x="9" y="36"></rect><rect fill="rgba(255,255,255,1)" height="3" width="3" x="6" y="36"></rect><rect fill="rgba(51,51,51,1)" height="3" width="3" x="3" y="36"></rect><rect fill="rgba(51,51,51,1)" height="3" width="3" x="45" y="33"></rect><rect fill="rgba(203,203,203,1)" height="3" width="3" x="42" y="33"></rect><rect fill="rgba(203,203,203,1)" height="3" width="3" x="39" y="33"></rect><rect fill="rgba(255,255,255,1)" height="3" width="3" x="36" y="33"></rect><rect fill="rgba(255,255,255,1)" height="3" width="3" x="33" y="33"></rect><rect fill="rgba(51,51,51,1)" height="3" width="3" x="30" y="33"></rect><rect fill="rgba(255,255,255,1)" height="3" width="3" x="27" y="33"></rect><rect fill="rgba(255,255,255,1)" height="3" width="3" x="24" y="33"></rect><rect fill="rgba(255,255,255,1)" height="3" width="3" x="21" y="33"></rect><rect fill="rgba(255,255,255,1)" height="3" width="3" x="18" y="33"></rect><rect fill="rgba(51,51,51,1)" height="3" width="3" x="15" y="33"></rect><rect fill="rgba(255,255,255,1)" height="3" width="3" x="12" y="33"></rect><rect fill="rgba(255,255,255,1)" height="3" width="3" x="9" y="33"></rect><rect fill="rgba(255,255,255,1)" height="3" width="3" x="6" y="33"></rect><rect fill="rgba(255,255,255,1)" height="3" width="3" x="3" y="33"></rect><rect fill="rgba(51,51,51,1)" height="3" width="3" x="0" y="33"></rect><rect fill="rgba(51,51,51,1)" height="3" width="3" x="45" y="30"></rect><rect fill="rgba(203,203,203,1)" height="3" width="3" x="42" y="30"></rect><rect fill="rgba(255,255,255,1)" height="3" width="3" x="39" y="30"></rect><rect fill="rgba(255,255,255,1)" height="3" width="3" x="36" y="30"></rect><rect fill="rgba(255,255,255,1)" height="3" width="3" x="33" y="30"></rect><rect fill="rgba(255,255,255,1)" height="3" width="3" x="30" y="30"></rect><rect fill="rgba(255,255,255,1)" height="3" width="3" x="27" y="30"></rect><rect fill="rgba(255,255,255,1)" height="3" width="3" x="24" y="30"></rect><rect fill="rgba(255,255,255,1)" height="3" width="3" x="21" y="30"></rect><rect fill="rgba(255,255,255,1)" height="3" width="3" x="18" y="30"></rect><rect fill="rgba(255,255,255,1)" height="3" width="3" x="15" y="30"></rect><rect fill="rgba(255,255,255,1)" height="3" width="3" x="12" y="30"></rect><rect fill="rgba(255,255,255,1)" height="3" width="3" x="9" y="30"></rect><rect fill="rgba(255,255,255,1)" height="3" width="3" x="6" y="30"></rect><rect fill="rgba(255,255,255,1)" height="3" width="3" x="3" y="30"></rect><rect fill="rgba(51,51,51,1)" height="3" width="3" x="0" y="30"></rect><rect fill="rgba(51,51,51,1)" height="3" width="3" x="45" y="27"></rect><rect fill="rgba(203,203,203,1)" height="3" width="3" x="42" y="27"></rect><rect fill="rgba(255,255,255,1)" height="3" width="3" x="39" y="27"></rect><rect fill="rgba(255,255,255,1)" height="3" width="3" x="36" y="27"></rect><rect fill="rgba(255,255,255,1)" height="3" width="3" x="33" y="27"></rect><rect fill="rgba(255,255,255,1)" height="3" width="3" x="30" y="27"></rect><rect fill="rgba(255,255,255,1)" height="3" width="3" x="27" y="27"></rect><rect fill="rgba(255,255,255,1)" height="3" width="3" x="24" y="27"></rect><rect fill="rgba(255,255,255,1)" height="3" width="3" x="21" y="27"></rect><rect fill="rgba(255,255,255,1)" height="3" width="3" x="18" y="27"></rect><rect fill="rgba(255,255,255,1)" height="3" width="3" x="15" y="27"></rect><rect fill="rgba(255,255,255,1)" height="3" width="3" x="12" y="27"></rect><rect fill="rgba(255,255,255,1)" height="3" width="3" x="9" y="27"></rect><rect fill="rgba(255,255,255,1)" height="3" width="3" x="6" y="27"></rect><rect fill="rgba(255,255,255,1)" height="3" width="3" x="3" y="27"></rect><rect fill="rgba(51,51,51,1)" height="3" width="3" x="0" y="27"></rect><rect fill="rgba(51,51,51,1)" height="3" width="3" x="45" y="24"></rect><rect fill="rgba(203,203,203,1)" height="3" width="3" x="42" y="24"></rect><rect fill="rgba(255,255,255,1)" height="3" width="3" x="39" y="24"></rect><rect fill="rgba(255,255,255,1)" height="3" width="3" x="36" y="24"></rect><rect fill="rgba(255,255,255,1)" height="3" width="3" x="33" y="24"></rect><rect fill="rgba(255,255,255,1)" height="3" width="3" x="30" y="24"></rect><rect fill="rgba(51,51,51,1)" height="3" width="3" x="27" y="24"></rect><rect fill="rgba(255,255,255,1)" height="3" width="3" x="24" y="24"></rect><rect fill="rgba(255,255,255,1)" height="3" width="3" x="21" y="24"></rect><rect fill="rgba(51,51,51,1)" height="3" width="3" x="18" y="24"></rect><rect fill="rgba(255,255,255,1)" height="3" width="3" x="15" y="24"></rect><rect fill="rgba(255,255,255,1)" height="3" width="3" x="12" y="24"></rect><rect fill="rgba(255,255,255,1)" height="3" width="3" x="9" y="24"></rect><rect fill="rgba(255,255,255,1)" height="3" width="3" x="6" y="24"></rect><rect fill="rgba(255,255,255,1)" height="3" width="3" x="3" y="24"></rect><rect fill="rgba(51,51,51,1)" height="3" width="3" x="0" y="24"></rect><rect fill="rgba(51,51,51,1)" height="3" width="3" x="45" y="21"></rect><rect fill="rgba(203,203,203,1)" height="3" width="3" x="42" y="21"></rect><rect fill="rgba(255,255,255,1)" height="3" width="3" x="39" y="21"></rect><rect fill="rgba(255,255,255,1)" height="3" width="3" x="36" y="21"></rect><rect fill="rgba(255,255,255,1)" height="3" width="3" x="33" y="21"></rect><rect fill="rgba(255,255,255,1)" height="3" width="3" x="30" y="21"></rect><rect fill="rgba(51,51,51,1)" height="3" width="3" x="27" y="21"></rect><rect fill="rgba(255,255,255,1)" height="3" width="3" x="24" y="21"></rect><rect fill="rgba(255,255,255,1)" height="3" width="3" x="21" y="21"></rect><rect fill="rgba(51,51,51,1)" height="3" width="3" x="18" y="21"></rect><rect fill="rgba(255,255,255,1)" height="3" width="3" x="15" y="21"></rect><rect fill="rgba(255,255,255,1)" height="3" width="3" x="12" y="21"></rect><rect fill="rgba(255,255,255,1)" height="3" width="3" x="9" y="21"></rect><rect fill="rgba(255,255,255,1)" height="3" width="3" x="6" y="21"></rect><rect fill="rgba(255,255,255,1)" height="3" width="3" x="3" y="21"></rect><rect fill="rgba(51,51,51,1)" height="3" width="3" x="0" y="21"></rect><rect fill="rgba(51,51,51,1)" height="3" width="3" x="45" y="18"></rect><rect fill="rgba(203,203,203,1)" height="3" width="3" x="42" y="18"></rect><rect fill="rgba(255,255,255,1)" height="3" width="3" x="39" y="18"></rect><rect fill="rgba(255,255,255,1)" height="3" width="3" x="36" y="18"></rect><rect fill="rgba(255,255,255,1)" height="3" width="3" x="33" y="18"></rect><rect fill="rgba(255,255,255,1)" height="3" width="3" x="30" y="18"></rect><rect fill="rgba(51,51,51,1)" height="3" width="3" x="27" y="18"></rect><rect fill="rgba(255,255,255,1)" height="3" width="3" x="24" y="18"></rect><rect fill="rgba(255,255,255,1)" height="3" width="3" x="21" y="18"></rect><rect fill="rgba(51,51,51,1)" height="3" width="3" x="18" y="18"></rect><rect fill="rgba(255,255,255,1)" height="3" width="3" x="15" y="18"></rect><rect fill="rgba(255,255,255,1)" height="3" width="3" x="12" y="18"></rect><rect fill="rgba(255,255,255,1)" height="3" width="3" x="9" y="18"></rect><rect fill="rgba(255,255,255,1)" height="3" width="3" x="6" y="18"></rect><rect fill="rgba(255,255,255,1)" height="3" width="3" x="3" y="18"></rect><rect fill="rgba(51,51,51,1)" height="3" width="3" x="0" y="18"></rect><rect fill="rgba(51,51,51,1)" height="3" width="3" x="45" y="15"></rect><rect fill="rgba(203,203,203,1)" height="3" width="3" x="42" y="15"></rect><rect fill="rgba(255,255,255,1)" height="3" width="3" x="39" y="15"></rect><rect fill="rgba(255,255,255,1)" height="3" width="3" x="36" y="15"></rect><rect fill="rgba(255,255,255,1)" height="3" width="3" x="33" y="15"></rect><rect fill="rgba(255,255,255,1)" height="3" width="3" x="30" y="15"></rect><rect fill="rgba(255,255,255,1)" height="3" width="3" x="27" y="15"></rect><rect fill="rgba(255,255,255,1)" height="3" width="3" x="24" y="15"></rect><rect fill="rgba(255,255,255,1)" height="3" width="3" x="21" y="15"></rect><rect fill="rgba(255,255,255,1)" height="3" width="3" x="18" y="15"></rect><rect fill="rgba(255,255,255,1)" height="3" width="3" x="15" y="15"></rect><rect fill="rgba(255,255,255,1)" height="3" width="3" x="12" y="15"></rect><rect fill="rgba(255,255,255,1)" height="3" width="3" x="9" y="15"></rect><rect fill="rgba(255,255,255,1)" height="3" width="3" x="6" y="15"></rect><rect fill="rgba(255,255,255,1)" height="3" width="3" x="3" y="15"></rect><rect fill="rgba(51,51,51,1)" height="3" width="3" x="0" y="15"></rect><rect fill="rgba(51,51,51,1)" height="3" width="3" x="42" y="12"></rect><rect fill="rgba(203,203,203,1)" height="3" width="3" x="39" y="12"></rect><rect fill="rgba(255,255,255,1)" height="3" width="3" x="36" y="12"></rect><rect fill="rgba(255,255,255,1)" height="3" width="3" x="33" y="12"></rect><rect fill="rgba(255,255,255,1)" height="3" width="3" x="30" y="12"></rect><rect fill="rgba(255,255,255,1)" height="3" width="3" x="27" y="12"></rect><rect fill="rgba(255,255,255,1)" height="3" width="3" x="24" y="12"></rect><rect fill="rgba(255,255,255,1)" height="3" width="3" x="21" y="12"></rect><rect fill="rgba(255,255,255,1)" height="3" width="3" x="18" y="12"></rect><rect fill="rgba(255,255,255,1)" height="3" width="3" x="15" y="12"></rect><rect fill="rgba(255,255,255,1)" height="3" width="3" x="12" y="12"></rect><rect fill="rgba(255,255,255,1)" height="3" width="3" x="9" y="12"></rect><rect fill="rgba(255,255,255,1)" height="3" width="3" x="6" y="12"></rect><rect fill="rgba(51,51,51,1)" height="3" width="3" x="3" y="12"></rect><rect fill="rgba(51,51,51,1)" height="3" width="3" x="42" y="9"></rect><rect fill="rgba(203,203,203,1)" height="3" width="3" x="39" y="9"></rect><rect fill="rgba(255,255,255,1)" height="3" width="3" x="36" y="9"></rect><rect fill="rgba(255,255,255,1)" height="3" width="3" x="33" y="9"></rect><rect fill="rgba(255,255,255,1)" height="3" width="3" x="30" y="9"></rect><rect fill="rgba(255,255,255,1)" height="3" width="3" x="27" y="9"></rect><rect fill="rgba(255,255,255,1)" height="3" width="3" x="24" y="9"></rect><rect fill="rgba(255,255,255,1)" height="3" width="3" x="21" y="9"></rect><rect fill="rgba(255,255,255,1)" height="3" width="3" x="18" y="9"></rect><rect fill="rgba(255,255,255,1)" height="3" width="3" x="15" y="9"></rect><rect fill="rgba(255,255,255,1)" height="3" width="3" x="12" y="9"></rect><rect fill="rgba(255,255,255,1)" height="3" width="3" x="9" y="9"></rect><rect fill="rgba(255,255,255,1)" height="3" width="3" x="6" y="9"></rect><rect fill="rgba(51,51,51,1)" height="3" width="3" x="3" y="9"></rect><rect fill="rgba(51,51,51,1)" height="3" width="3" x="42" y="6"></rect><rect fill="rgba(203,203,203,1)" height="3" width="3" x="39" y="6"></rect><rect fill="rgba(255,255,255,1)" height="3" width="3" x="36" y="6"></rect><rect fill="rgba(255,255,255,1)" height="3" width="3" x="33" y="6"></rect><rect fill="rgba(255,255,255,1)" height="3" width="3" x="30" y="6"></rect><rect fill="rgba(255,255,255,1)" height="3" width="3" x="27" y="6"></rect><rect fill="rgba(255,255,255,1)" height="3" width="3" x="24" y="6"></rect><rect fill="rgba(255,255,255,1)" height="3" width="3" x="21" y="6"></rect><rect fill="rgba(255,255,255,1)" height="3" width="3" x="18" y="6"></rect><rect fill="rgba(255,255,255,1)" height="3" width="3" x="15" y="6"></rect><rect fill="rgba(255,255,255,1)" height="3" width="3" x="12" y="6"></rect><rect fill="rgba(255,255,255,1)" height="3" width="3" x="9" y="6"></rect><rect fill="rgba(255,255,255,1)" height="3" width="3" x="6" y="6"></rect><rect fill="rgba(51,51,51,1)" height="3" width="3" x="3" y="6"></rect><rect fill="rgba(51,51,51,1)" height="3" width="3" x="39" y="3"></rect><rect fill="rgba(203,203,203,1)" height="3" width="3" x="36" y="3"></rect><rect fill="rgba(255,255,255,1)" height="3" width="3" x="33" y="3"></rect><rect fill="rgba(255,255,255,1)" height="3" width="3" x="30" y="3"></rect><rect fill="rgba(255,255,255,1)" height="3" width="3" x="27" y="3"></rect><rect fill="rgba(255,255,255,1)" height="3" width="3" x="24" y="3"></rect><rect fill="rgba(255,255,255,1)" height="3" width="3" x="21" y="3"></rect><rect fill="rgba(255,255,255,1)" height="3" width="3" x="18" y="3"></rect><rect fill="rgba(255,255,255,1)" height="3" width="3" x="15" y="3"></rect><rect fill="rgba(255,255,255,1)" height="3" width="3" x="12" y="3"></rect><rect fill="rgba(255,255,255,1)" height="3" width="3" x="9" y="3"></rect><rect fill="rgba(51,51,51,1)" height="3" width="3" x="6" y="3"></rect><rect fill="rgba(51,51,51,1)" height="3" width="3" x="36" y="0"></rect><rect fill="rgba(51,51,51,1)" height="3" width="3" x="33" y="0"></rect><rect fill="rgba(51,51,51,1)" height="3" width="3" x="30" y="0"></rect><rect fill="rgba(51,51,51,1)" height="3" width="3" x="27" y="0"></rect><rect fill="rgba(51,51,51,1)" height="3" width="3" x="24" y="0"></rect><rect fill="rgba(51,51,51,1)" height="3" width="3" x="21" y="0"></rect><rect fill="rgba(51,51,51,1)" height="3" width="3" x="18" y="0"></rect><rect fill="rgba(51,51,51,1)" height="3" width="3" x="15" y="0"></rect><rect fill="rgba(51,51,51,1)" height="3" width="3" x="12" y="0"></rect><rect fill="rgba(51,51,51,1)" height="3" width="3" x="9" y="0"></rect></g></svg>
